<svg width="321" height="321" viewBox="0 0 321 321" fill="none" xmlns="http://www.w3.org/2000/svg">
<g opacity="0.1" clip-path="url(#clip0_30_1123)">
<path d="M29.3599 175.75L17.9654 203.603C5.37943 234.369 34.6657 275.464 83.3782 295.392C132.091 315.32 181.783 306.534 194.369 275.768L205.763 247.915L29.3599 175.75Z" fill="#00B378"/>
<path d="M127.873 305.848L143.389 267.917L134.105 264.119L117.471 304.782C120.988 305.288 124.456 305.643 127.873 305.848Z" fill="#46C89D"/>
<path d="M78.7673 293.416C80.2842 294.095 81.8211 294.754 83.3782 295.392C84.9355 296.029 86.4933 296.636 88.0517 297.214L106.314 252.574L97.0296 248.775L78.7673 293.416Z" fill="#46C89D"/>
<path d="M44.3132 271.664C46.8915 273.909 49.6137 276.086 52.4799 278.194L70.498 234.15L61.2137 230.352L44.3132 271.664Z" fill="#46C89D"/>
<path d="M29.2007 255.619L45.1283 216.684L35.8441 212.886L22.5466 245.391C24.5124 248.958 26.7364 252.376 29.2007 255.619Z" fill="#46C89D"/>
<path d="M205.946 247.974C218.544 217.194 189.248 176.07 140.512 156.123C91.7755 136.176 42.054 144.958 29.4558 175.739C16.8576 206.52 46.1534 247.643 94.8897 267.59C143.626 287.538 193.347 278.755 205.946 247.974Z" fill="#46C89D"/>
<path d="M155.981 195.432C154.969 192.999 153.483 190.791 151.611 188.935C149.74 187.08 147.518 185.614 145.076 184.622L140.326 182.679L143.938 173.851L134.653 170.052L131.042 178.881L121.865 175.127L125.663 165.842L116.379 162.044L112.581 171.329L103.296 167.531L99.4979 176.815L108.782 180.613L89.7917 227.035L80.5075 223.237L76.709 232.521L85.9935 236.319L82.1954 245.604L91.4797 249.402L95.2779 240.118L104.562 243.916L100.764 253.2L110.048 256.998L113.847 247.714L118.489 249.613C122.161 251.115 126.197 251.495 130.085 250.704C133.974 249.913 137.54 247.986 140.333 245.168C143.127 242.35 145.022 238.767 145.779 234.872C146.536 230.977 146.121 226.945 144.587 223.286C144.421 222.89 144.239 222.504 144.051 222.123C146.641 221.229 149.021 219.813 151.042 217.962C153.063 216.112 154.683 213.866 155.801 211.364C156.92 208.862 157.513 206.157 157.544 203.417C157.575 200.676 157.043 197.959 155.981 195.432ZM135.369 234.843C134.359 237.303 132.415 239.262 129.962 240.29C127.51 241.319 124.75 241.333 122.287 240.329L99.076 230.833L106.672 212.265L129.883 221.76C132.346 222.767 134.307 224.712 135.336 227.165C136.365 229.619 136.377 232.38 135.369 234.843ZM146.764 206.989C145.754 209.449 143.809 211.409 141.357 212.437C138.904 213.465 136.144 213.479 133.682 212.476L110.47 202.98L118.067 184.411L141.278 193.907C143.74 194.914 145.701 196.858 146.73 199.312C147.759 201.765 147.771 204.527 146.764 206.989Z" fill="#00B378"/>
<path d="M291.071 223.046L268.189 242.592C242.914 264.181 194.713 249.241 160.53 209.222C126.347 169.203 119.125 119.259 144.401 97.6698L167.283 78.1242" fill="#E5707F"/>
<path d="M188.21 178.347L156.827 204.709C158.025 206.225 159.259 207.729 160.53 209.222C161.443 210.291 162.367 211.341 163.301 212.371L194.662 186.028L188.21 178.347Z" fill="#F78F9C"/>
<path d="M185.883 232.705C188.766 234.784 191.676 236.707 194.611 238.474L223.098 214.545L216.646 206.864L185.883 232.705Z" fill="#F78F9C"/>
<path d="M226.274 251.179L256.209 226.034L249.757 218.353L214.517 247.954C218.353 249.31 222.283 250.388 226.274 251.179Z" fill="#F78F9C"/>
<path d="M290.633 223.531C316.062 202.124 309.199 152.131 275.305 111.868C241.411 71.6053 193.319 56.3197 167.89 77.7267C142.461 99.1336 149.324 149.127 183.218 189.39C217.112 229.652 265.204 244.938 290.633 223.531Z" fill="#F78F9C"/>
<path d="M149.898 304.995C153.928 304.409 157.91 303.53 161.812 302.364L176.287 266.981L167.003 263.183L149.898 304.995Z" fill="#46C89D"/>
<path d="M193.228 56.2493L174.99 32.3118L23.386 147.82L41.6241 171.757C61.7694 198.198 112.038 193.775 153.902 161.878C195.767 129.982 213.374 82.69 193.228 56.2493Z" fill="#3F589E"/>
<path d="M199.659 97.7935L174.588 64.8884L166.609 70.9675L195.889 109.398C197.427 105.627 198.687 101.748 199.659 97.7935Z" fill="#576CD3"/>
<path d="M185.463 128.818L155.827 89.9209L147.848 96L179.273 137.245C181.492 134.47 183.556 131.661 185.463 128.818Z" fill="#576CD3"/>
<path d="M130.119 122.387L122.14 128.466L149.863 164.852C151.217 163.889 152.564 162.897 153.902 161.878C155.241 160.859 156.554 159.823 157.842 158.773L130.119 122.387Z" fill="#576CD3"/>
<path d="M94.7932 142.23L86.8142 148.309L113.651 183.532C116.892 182.447 120.148 181.204 123.419 179.801L94.7932 142.23Z" fill="#576CD3"/>
<path d="M59.0232 144.938L51.0442 151.017L79.9711 188.984C84.042 189.097 88.1158 188.911 92.1598 188.43L59.0232 144.938Z" fill="#576CD3"/>
<path d="M135.615 137.88C177.457 105.986 195.046 58.7075 174.902 32.2812C154.759 5.85492 104.509 10.2877 62.6678 42.1821C20.8261 74.0765 3.23654 121.355 23.3804 147.781C43.5242 174.207 93.7734 169.775 135.615 137.88Z" fill="#576CD3"/>
<path d="M151.052 50.55L77.9103 62.1386L47.3237 129.582L120.466 117.993L151.052 50.55Z" fill="#92AFEF"/>
<path d="M20.2748 62.9852L11.95 57.3892C20.3691 44.8645 31.6681 33.0262 44.6253 23.1544C50.3817 18.7631 56.4391 14.781 62.7527 11.2374L67.6533 19.9903C61.7503 23.304 56.0869 27.0275 50.7047 31.1334C38.6111 40.3476 28.0885 51.3618 20.2748 62.9852Z" fill="#92AFEF"/>
<path d="M291.165 103.342C289.688 101.393 288.137 99.4504 286.555 97.5671C271.704 79.8869 253.417 66.5063 235.062 59.8899L238.463 50.4532C258.457 57.6601 278.265 72.1008 294.236 91.1151C295.925 93.1258 297.581 95.2007 299.159 97.2824L291.165 103.342Z" fill="#FFC7D3"/>
<path d="M224.654 56.8899C221.586 56.2264 218.474 55.7855 215.343 55.5708L216.001 45.5609C219.616 45.8078 223.209 46.3155 226.752 47.0803L224.654 56.8899Z" fill="#FFC7D3"/>
<path d="M225.769 280.922L225.637 270.891L226.31 270.881C229.324 270.828 232.361 270.682 235.339 270.447L236.129 280.447C232.947 280.698 229.704 280.855 226.49 280.911L225.769 280.922Z" fill="#BDECDC"/>
<path d="M246.502 279.271L245.029 269.349C261.279 266.938 276.24 261.778 288.295 254.428L293.517 262.993C280.325 271.036 264.068 276.665 246.502 279.271Z" fill="#BDECDC"/>
<path d="M77.9102 62.1386L83.2299 102.225L151.052 50.55L77.9102 62.1386Z" fill="#7F9AE5"/>
<path d="M83.23 102.225L47.3237 129.582L120.466 117.993L83.23 102.225Z" fill="#7F9AE5"/>
<path d="M83.23 102.225L120.466 117.993L151.053 50.55L83.23 102.225Z" fill="#6C85E0"/>
<path d="M272.276 147.036C270.646 145.096 268.553 143.599 266.191 142.684C263.828 141.768 261.273 141.464 258.762 141.8C256.251 142.135 253.865 143.099 251.826 144.602C249.786 146.105 248.159 148.099 247.096 150.398L233.878 146.538L232.357 132.852C235.779 131.943 238.77 129.857 240.805 126.96C242.84 124.063 243.789 120.542 243.484 117.015C243.18 113.488 241.641 110.182 239.139 107.677C236.637 105.172 233.332 103.63 229.806 103.322C226.279 103.013 222.757 103.958 219.858 105.99C216.959 108.022 214.87 111.011 213.957 114.432C213.045 117.852 213.367 121.485 214.869 124.691C216.37 127.897 218.954 130.471 222.165 131.96L223.981 148.301L217.697 153.579C214.639 151.778 211.042 151.115 207.542 151.709C204.043 152.303 200.866 154.115 198.573 156.825C196.281 159.535 195.02 162.968 195.013 166.517C195.007 170.067 196.256 173.504 198.539 176.222C200.822 178.94 203.992 180.763 207.489 181.37C210.987 181.976 214.586 181.327 217.65 179.536C220.715 177.746 223.048 174.929 224.238 171.585C225.427 168.241 225.395 164.583 224.149 161.26L230.433 155.982L246.215 160.591C246.795 162.768 247.858 164.788 249.324 166.5C250.789 168.212 252.621 169.572 254.683 170.482C256.745 171.391 258.985 171.825 261.238 171.753C263.49 171.68 265.698 171.103 267.697 170.063C269.696 169.023 271.437 167.547 272.789 165.744C274.142 163.942 275.072 161.858 275.512 159.648C275.951 157.437 275.889 155.156 275.329 152.973C274.768 150.791 273.725 148.761 272.276 147.036Z" fill="#D66376"/>
<path d="M47.3227 134.597C47.5858 134.597 47.8484 134.577 48.1083 134.536L121.251 122.947C122.071 122.817 122.845 122.486 123.506 121.983C124.166 121.48 124.691 120.82 125.034 120.065L155.621 52.6215C155.995 51.7967 156.138 50.886 156.037 49.9861C155.935 49.0862 155.591 48.2307 155.042 47.5103C154.493 46.7899 153.76 46.2316 152.919 45.8946C152.079 45.5576 151.162 45.4544 150.268 45.5961L77.1254 57.185C76.3056 57.3149 75.5308 57.6462 74.8706 58.1492C74.2104 58.6522 73.6853 59.3113 73.3425 60.0672L42.7556 127.51C42.4092 128.274 42.2599 129.113 42.3214 129.949C42.3828 130.786 42.6531 131.594 43.1075 132.299C43.5618 133.004 44.1858 133.584 44.9222 133.985C45.6586 134.387 46.4839 134.597 47.3227 134.597ZM83.9541 107.978L102.379 115.78L66.1871 121.515L83.9541 107.978ZM87.0649 92.9972L83.5258 66.3273L132.189 58.617L87.0649 92.9972ZM77.8749 99.9992L60.1079 113.536L75.2427 80.1642L77.8749 99.9992ZM117.918 111.467L93.144 100.976L138.268 66.5959L117.918 111.467Z" fill="#2C3F68"/>
<path d="M50.7047 31.1334C56.0869 27.0275 61.7503 23.304 67.6533 19.9903L62.7527 11.2374C56.4391 14.781 50.3817 18.7631 44.6253 23.1544C31.668 33.0262 20.3691 44.8645 11.95 57.3892L20.2748 62.9852C28.0885 51.3618 38.6111 40.3476 50.7047 31.1334Z" fill="#2C3F68"/>
<path d="M310.161 173.962C307.162 151.941 296.163 128.685 279.189 108.477C257.239 82.3454 228.866 65.5064 202.896 63.0851C201.436 59.5627 199.528 56.2435 197.218 53.2099L178.98 29.2724C168.156 15.0665 149.539 8.35764 126.556 10.3787C104.417 12.3266 80.6641 22.2072 59.6722 38.2013C38.68 54.195 22.8489 74.4737 15.0949 95.3015C7.04522 116.923 8.57281 136.653 19.3963 150.859L29.8805 164.62C27.7939 167.477 26.0605 170.577 24.7178 173.851L13.3233 201.704C6.56093 218.234 10.2109 237.684 23.6004 256.473C36.4983 274.571 57.0533 290.042 81.4791 300.034C99.3032 307.326 117.699 311.092 134.847 311.092C141.03 311.109 147.202 310.587 153.294 309.529C176.013 305.512 192.249 294.197 199.011 277.667L209.719 251.491C211.625 252.231 213.535 252.907 215.447 253.52C223.016 256.024 230.925 257.344 238.896 257.435C251.257 257.435 262.169 253.779 270.738 246.581L293.781 227.225C307.457 215.739 313.274 196.823 310.161 173.962ZM167.266 209.041L182.622 196.142C189.374 203.714 196.88 210.577 205.024 216.626L189.89 229.339C181.624 223.426 174.037 216.619 167.266 209.041ZM160.817 201.357C158.725 198.685 156.737 195.953 154.854 193.162C154.636 192.784 154.407 192.411 154.162 192.045L154.119 192.074C150.411 186.49 147.125 180.637 144.289 174.565C148.59 171.909 152.808 169.011 156.942 165.868C158.02 165.047 159.083 164.214 160.131 163.368C164.622 172.249 169.996 180.656 176.171 188.46L160.817 201.357ZM146.764 206.989C145.757 209.452 143.813 211.413 141.36 212.442C138.906 213.471 136.145 213.483 133.683 212.476L133.681 212.476L110.47 202.98L116.676 187.812C123.163 185.541 129.47 182.785 135.543 179.566C138.665 186.172 142.289 192.528 146.385 198.579C147.054 199.869 147.435 201.29 147.5 202.742C147.566 204.195 147.314 205.644 146.764 206.989ZM135.336 227.165C136.103 228.995 136.311 231.011 135.932 232.958C135.554 234.906 134.606 236.697 133.209 238.106C131.813 239.515 130.029 240.479 128.085 240.874C126.141 241.27 124.123 241.08 122.287 240.329L99.076 230.833L106.672 212.265L129.883 221.76C131.104 222.256 132.215 222.988 133.151 223.916C134.087 224.844 134.83 225.948 135.336 227.165ZM63.9544 170.106C64.4908 170.106 65.032 170.098 65.5743 170.088L75.9666 183.728C62.744 182.514 52.2057 177.37 45.6136 168.718L44.7439 167.576C50.9992 169.306 57.4646 170.158 63.9544 170.106ZM89.1788 183.698C88.9811 183.716 88.7864 183.728 88.5895 183.744L77.4256 169.091C84.6441 168.011 91.7426 166.242 98.6243 163.81L110.447 179.327C103.539 181.558 96.4068 183.024 89.1788 183.698ZM134.666 144.907L146.821 160.86C138.552 166.768 129.657 171.746 120.296 175.703L108.317 159.981C117.59 155.865 126.419 150.814 134.666 144.907ZM154.8 154.781L142.645 138.828C150.53 132.444 157.742 125.272 164.172 117.425L176.151 133.147C169.851 141.122 162.691 148.377 154.8 154.781ZM182.259 124.613L170.437 109.096C174.608 103.106 178.197 96.7319 181.155 90.0593L192.319 104.712C192.251 104.897 192.188 105.082 192.119 105.268C189.55 112.058 186.244 118.545 182.259 124.613ZM195.654 92.5378L185.263 78.8992C187.321 72.1746 188.368 65.1816 188.37 58.1493L189.239 59.2893C195.831 67.9415 197.994 79.4675 195.654 92.5378ZM24.4955 98.8015C31.5968 79.7278 46.2485 61.0398 65.7514 46.1802C85.2546 31.321 107.161 22.1552 127.435 20.3711C129.819 20.1614 132.141 20.0569 134.401 20.0576C150.558 20.0576 163.401 25.3766 171.001 35.3515C179.663 46.7215 180.686 63.0504 173.881 81.3303C166.779 100.404 152.128 119.092 132.625 133.952C113.122 148.811 91.2152 157.977 70.9409 159.761C51.5123 161.47 36.0454 156.152 27.3811 144.788L27.3753 144.78C18.7128 133.41 17.69 117.081 24.4955 98.8015ZM37.6346 174.797C47.1947 187.345 62.833 194.044 82.1923 194.044C84.75 194.044 87.3719 193.926 90.058 193.691C94.8791 193.256 99.6638 192.484 104.377 191.382L89.7916 227.035L80.5074 223.237L76.709 232.521L85.9935 236.319L82.1954 245.604L91.4797 249.402L95.2779 240.118L104.562 243.916L100.764 253.2L110.048 256.998L113.847 247.714L118.489 249.613C122.161 251.115 126.197 251.495 130.085 250.704C133.974 249.913 137.54 247.986 140.333 245.168C143.127 242.35 145.022 238.767 145.779 234.872C146.536 230.977 146.121 226.945 144.587 223.286C144.421 222.89 144.239 222.504 144.051 222.123C146.67 221.218 149.072 219.779 151.106 217.897C153.14 216.015 154.76 213.731 155.865 211.19C156.009 211.362 156.148 211.536 156.292 211.708C169.254 227.139 184.569 239.44 200.513 247.404C194.739 259.885 181.47 268.522 162.942 271.798C142.901 275.341 119.365 272.18 96.672 262.897C73.9783 253.613 54.9756 239.372 43.1639 222.798C31.8435 206.913 28.5897 190.879 34.0021 177.649C34.6556 176.065 35.4291 174.533 36.316 173.066L37.6346 174.797ZM88.2615 270.208L80.6677 288.771C71.384 284.637 62.585 279.49 54.4309 273.425L61.9146 255.132C70.1616 261.04 78.9896 266.091 88.2615 270.208ZM97.5494 273.998C107.047 277.562 116.883 280.149 126.906 281.718L119.421 300.013C109.354 298.623 99.4713 296.127 89.9521 292.569L97.5494 273.998ZM22.6076 205.502L23.1502 204.176C24.9792 210.966 27.8067 217.447 31.5403 223.406L25.0484 239.276C19.3944 227.262 18.4891 215.57 22.6076 205.502ZM31.7695 250.651C31.6542 250.489 31.545 250.327 31.4314 250.166L38.406 233.117C42.9956 238.792 48.1173 244.015 53.7013 248.715L46.315 266.771C40.891 261.946 36.0133 256.54 31.7695 250.651ZM129.874 300.954L137.262 282.896C140.285 283.119 143.283 283.239 146.241 283.239C150.54 283.242 154.835 282.993 159.104 282.491L152.129 299.542C151.934 299.578 151.743 299.617 151.548 299.651C144.393 300.878 137.125 301.315 129.874 300.954ZM164.314 296.248L170.806 280.379C177.646 278.745 184.205 276.104 190.269 272.543L189.727 273.869C185.608 283.936 176.768 291.642 164.314 296.248ZM198.705 235.035L213.642 222.488C219.823 226.37 226.361 229.652 233.166 232.289L219.062 244.137C218.873 244.078 218.686 244.023 218.496 243.963C211.592 241.72 204.955 238.726 198.705 235.035ZM264.286 238.9C255.957 245.896 244.547 248.605 231.38 246.889L244.509 235.861C250.21 237.296 256.062 238.04 261.939 238.079C263.105 238.079 264.253 238.036 265.393 237.971L264.286 238.9ZM287.329 219.544C276.384 228.738 260.122 230.535 241.539 224.607C222.15 218.421 202.787 204.675 187.016 185.9C179.469 176.979 173.077 167.142 167.992 156.62C183.488 142.387 195.193 125.761 201.519 108.768C206.217 96.1497 207.647 84.1781 205.877 73.5701C227.992 77.0559 252.646 92.4745 271.508 114.929C287.278 133.704 297.475 155.149 300.221 175.316C302.853 194.643 298.274 210.351 287.329 219.544Z" fill="#2C3F68"/>
<path d="M262.492 136.726C258.253 136.359 254.007 137.348 250.367 139.55C246.726 141.752 243.879 145.054 242.237 148.979L233.878 146.538L232.917 137.886C237.677 136.813 241.883 134.042 244.748 130.092C247.613 126.141 248.94 121.283 248.481 116.424C248.023 111.566 245.81 107.042 242.257 103.697C238.703 100.353 234.053 98.4176 229.176 98.2539C224.299 98.0902 219.53 99.7091 215.76 102.808C211.99 105.906 209.479 110.272 208.695 115.089C207.912 119.905 208.911 124.842 211.504 128.976C214.098 133.109 218.108 136.156 222.786 137.546L223.981 148.301L221.712 150.206C217.739 147.374 212.87 146.088 208.017 146.59C203.164 147.091 198.66 149.345 195.35 152.929C192.04 156.513 190.15 161.181 190.036 166.059C189.921 170.936 191.589 175.688 194.727 179.424C197.865 183.16 202.257 185.623 207.081 186.352C211.905 187.081 216.83 186.025 220.931 183.383C225.033 180.742 228.031 176.695 229.362 172.001C230.694 167.307 230.268 162.289 228.164 157.887L230.433 155.982L240.819 159.015C241.352 163.608 243.454 167.875 246.769 171.098C250.084 174.32 254.41 176.299 259.016 176.701C259.609 176.752 260.2 176.778 260.788 176.778C265.499 176.782 270.059 175.116 273.658 172.075C276.696 169.523 278.91 166.128 280.018 162.318C281.126 158.508 281.08 154.454 279.885 150.671C278.69 146.887 276.399 143.542 273.303 141.06C270.208 138.578 266.445 137.07 262.492 136.726ZM220.813 124.76C219.32 122.983 218.49 120.743 218.463 118.422C218.437 116.102 219.216 113.843 220.668 112.033C222.119 110.222 224.154 108.97 226.425 108.492C228.696 108.013 231.063 108.336 233.122 109.407C235.181 110.478 236.806 112.229 237.718 114.363C238.631 116.497 238.775 118.881 238.127 121.11C237.479 123.338 236.078 125.273 234.163 126.585C232.248 127.896 229.937 128.503 227.625 128.302C226.312 128.191 225.034 127.821 223.864 127.213C222.695 126.605 221.658 125.771 220.813 124.76ZM220.053 167.414C219.884 169.352 219.155 171.2 217.954 172.731C216.753 174.263 215.133 175.412 213.291 176.039C211.449 176.665 209.464 176.743 207.579 176.261C205.693 175.78 203.988 174.76 202.672 173.327C201.356 171.894 200.485 170.109 200.166 168.189C199.846 166.269 200.092 164.298 200.873 162.516C201.655 160.734 202.937 159.217 204.565 158.151C206.193 157.085 208.096 156.516 210.042 156.512C210.336 156.512 210.632 156.525 210.929 156.551C212.241 156.665 213.518 157.037 214.687 157.644C215.856 158.252 216.893 159.084 217.741 160.092C218.588 161.101 219.228 162.267 219.625 163.523C220.022 164.779 220.167 166.101 220.053 167.414ZM270.747 157.583C270.637 158.896 270.267 160.174 269.659 161.343C269.051 162.512 268.217 163.549 267.206 164.394C265.971 165.431 264.505 166.155 262.932 166.505C261.358 166.855 259.723 166.82 258.166 166.404C256.608 165.988 255.174 165.203 253.985 164.115C252.795 163.027 251.885 161.668 251.332 160.154C250.779 158.64 250.599 157.014 250.808 155.416C251.016 153.817 251.607 152.293 252.529 150.971C253.452 149.649 254.68 148.569 256.108 147.822C257.537 147.076 259.125 146.684 260.737 146.681C261.031 146.681 261.326 146.694 261.623 146.72C262.935 146.834 264.212 147.206 265.381 147.813C266.55 148.421 267.588 149.253 268.435 150.262C269.282 151.27 269.923 152.436 270.319 153.692C270.716 154.948 270.862 156.27 270.747 157.583Z" fill="#2C3F68"/>
<path d="M286.555 97.5671C288.137 99.4504 289.688 101.393 291.165 103.342L299.159 97.2824C297.581 95.2008 295.925 93.1258 294.236 91.1152C278.265 72.1009 258.457 57.6601 238.463 50.4532L235.062 59.89C253.417 66.5063 271.704 79.8869 286.555 97.5671Z" fill="#2C3F68"/>
<path d="M226.752 47.0803C223.209 46.3155 219.616 45.8078 216.001 45.5609L215.343 55.5708C218.474 55.7855 221.586 56.2264 224.654 56.8899L226.752 47.0803Z" fill="#2C3F68"/>
<path d="M226.31 270.881L225.637 270.891L225.769 280.922L226.49 280.91C229.704 280.854 232.947 280.698 236.129 280.447L235.339 270.447C232.361 270.682 229.324 270.828 226.31 270.881Z" fill="#2C3F68"/>
<path d="M245.029 269.349L246.502 279.271C264.068 276.665 280.325 271.036 293.517 262.993L288.295 254.428C276.24 261.778 261.279 266.938 245.029 269.349Z" fill="#2C3F68"/>
</g>
<defs>
<clipPath id="clip0_30_1123">
<rect width="321" height="321" fill="white"/>
</clipPath>
</defs>
</svg>
