<svg width="253" height="41" viewBox="0 0 253 41" fill="none" xmlns="http://www.w3.org/2000/svg">
<g opacity="0.5">
<path d="M2.72546 37.4496L1 35.8571V40C1 40.5523 1.44772 41 2 41H84C84.5523 41 85 40.5523 85 40V29.5L83.8516 28.9219C83.6752 28.8331 83.5291 28.6941 83.4316 28.5223L82.0441 26.0778C82.0148 26.026 81.9808 25.977 81.9428 25.9313L79.0566 22.4671C78.8666 22.239 78.5851 22.1071 78.2883 22.1071H77.2743C76.8122 22.1071 76.4102 21.7905 76.3021 21.3412L75.5905 18.3859C75.3987 17.5896 74.338 17.4263 73.9156 18.128C73.7499 18.4031 73.4522 18.5714 73.131 18.5714H69.5731C69.2783 18.5714 68.9985 18.4413 68.8084 18.2159L68.1986 17.4922C67.7114 16.9141 66.7837 17.0648 66.5046 17.7674L65.1481 21.1816C64.7893 22.0848 63.4833 21.9971 63.2484 21.0541L61.2414 12.9967C61.1899 12.79 61.0738 12.6052 60.91 12.4691L58.7054 10.6379C58.4653 10.4385 58.1458 10.3626 57.8416 10.4328L55.686 10.9302C55.236 11.034 54.7734 10.8161 54.5668 10.403L53.2506 7.77112C52.8837 7.03738 51.838 7.03329 51.4653 7.76414L49.7067 11.2132C49.4056 11.8036 48.5553 11.7834 48.2826 11.1794C47.9993 10.5518 47.1046 10.5617 46.8353 11.1955L45.736 13.7825C45.3758 14.6301 44.1583 14.5814 43.867 13.7077L42.3329 9.10633C42.0208 8.17006 40.685 8.20401 40.4208 9.15492L38.6629 15.482C38.5427 15.9148 38.1486 16.2143 37.6994 16.2143H37.2217C36.7779 16.2143 36.3871 16.5068 36.2621 16.9327L32.8321 28.6209C32.8001 28.73 32.7498 28.8328 32.6832 28.9249L29.0011 34.0223C28.6177 34.5531 27.8361 34.5783 27.4193 34.0734L26.4486 32.8976C26.1665 32.5559 25.6932 32.4406 25.2856 32.6142L22.809 33.6691C22.4835 33.8078 22.2555 34.1081 22.2094 34.4589L21.8305 37.3445C21.7651 37.8422 21.3409 38.2143 20.839 38.2143H19.1717C18.8146 38.2143 18.4845 38.0238 18.3059 37.7146L16.0132 33.7473C15.6378 33.0977 14.7073 33.0775 14.3041 33.7101L11.6678 37.8462C11.304 38.4171 10.4899 38.469 10.0564 37.949L7.50029 34.8822C7.08233 34.3807 6.30376 34.4077 5.9215 34.9369L4.2143 37.3003C3.86317 37.7864 3.16613 37.8563 2.72546 37.4496Z" fill="url(#paint0_linear_30_1447)"/>
<path d="M1 35.8571L2.72546 37.4496C3.16613 37.8563 3.86317 37.7864 4.2143 37.3003L5.9215 34.9369C6.30376 34.4077 7.08233 34.3807 7.50029 34.8822L10.0564 37.949C10.4899 38.469 11.304 38.4171 11.6678 37.8462L14.3041 33.7101C14.7073 33.0775 15.6378 33.0977 16.0132 33.7473L18.3059 37.7146C18.4845 38.0238 18.8146 38.2143 19.1717 38.2143H20.839C21.3409 38.2143 21.7651 37.8422 21.8305 37.3445L22.2094 34.4589C22.2555 34.1081 22.4835 33.8078 22.809 33.6691L25.2856 32.6142C25.6932 32.4406 26.1665 32.5559 26.4486 32.8976L27.4193 34.0734C27.8361 34.5783 28.6177 34.5531 29.0011 34.0223L32.6832 28.9249C32.7498 28.8328 32.8001 28.73 32.8321 28.6209L36.2621 16.9327C36.3871 16.5068 36.7779 16.2143 37.2217 16.2143H37.6994C38.1486 16.2143 38.5427 15.9148 38.6629 15.482L40.4208 9.15492C40.685 8.20401 42.0208 8.17006 42.3329 9.10633L43.867 13.7077C44.1583 14.5814 45.3758 14.6301 45.736 13.7825L46.8353 11.1955C47.1046 10.5617 47.9993 10.5518 48.2826 11.1794C48.5553 11.7834 49.4056 11.8036 49.7067 11.2132L51.4653 7.76414C51.838 7.03329 52.8837 7.03738 53.2506 7.77112L54.5668 10.403C54.7734 10.8161 55.236 11.034 55.686 10.9302L57.8416 10.4328C58.1458 10.3626 58.4653 10.4385 58.7054 10.6379L60.91 12.4691C61.0738 12.6052 61.1899 12.79 61.2414 12.9967L63.2484 21.0541C63.4833 21.9971 64.7893 22.0848 65.1481 21.1816L66.5046 17.7674C66.7837 17.0648 67.7114 16.9141 68.1986 17.4922L68.8084 18.2159C68.9985 18.4413 69.2783 18.5714 69.5731 18.5714H73.131C73.4522 18.5714 73.7499 18.4031 73.9156 18.128C74.338 17.4263 75.3987 17.5896 75.5905 18.3859L76.3021 21.3412C76.4102 21.7905 76.8122 22.1071 77.2743 22.1071H78.1098C78.5035 22.1071 78.8606 22.3381 79.0219 22.6972L85 36" stroke="#DF2040" stroke-linecap="round"/>
<path d="M86.7255 37.4496L85 35.8571V40C85 40.5523 85.4477 41 86 41H168C168.552 41 169 40.5523 169 40V24.0714L167.674 28.4775C167.614 28.6779 167.492 28.8543 167.326 28.982L166.221 29.8316C165.654 30.2677 164.826 29.9848 164.644 29.293L162.953 22.8531C162.837 22.4136 162.44 22.1071 161.986 22.1071H161.274C160.812 22.1071 160.41 21.7905 160.302 21.3412L159.59 18.3859C159.399 17.5896 158.338 17.4263 157.916 18.128C157.75 18.4031 157.452 18.5714 157.131 18.5714H153.573C153.278 18.5714 152.998 18.4413 152.808 18.2159L152.199 17.4922C151.711 16.9141 150.784 17.0648 150.505 17.7674L149.148 21.1816C148.789 22.0848 147.483 21.9971 147.248 21.0541L145.241 12.9967C145.19 12.79 145.074 12.6052 144.91 12.4691L142.705 10.6379C142.465 10.4385 142.146 10.3626 141.842 10.4328L139.686 10.9302C139.236 11.034 138.773 10.8161 138.567 10.403L137.251 7.77112C136.884 7.03738 135.838 7.03329 135.465 7.76414L133.707 11.2132C133.406 11.8036 132.555 11.7834 132.283 11.1794C131.999 10.5518 131.105 10.5617 130.835 11.1955L129.736 13.7825C129.376 14.6301 128.158 14.5814 127.867 13.7077L126.333 9.10633C126.021 8.17006 124.685 8.20401 124.421 9.15492L122.663 15.482C122.543 15.9148 122.149 16.2143 121.699 16.2143H121.222C120.778 16.2143 120.387 16.5068 120.262 16.9327L116.832 28.6209C116.8 28.73 116.75 28.8328 116.683 28.9249L113.001 34.0223C112.618 34.5531 111.836 34.5783 111.419 34.0734L110.449 32.8976C110.167 32.5559 109.693 32.4406 109.286 32.6142L106.809 33.6691C106.484 33.8078 106.256 34.1081 106.209 34.4589L105.83 37.3445C105.765 37.8422 105.341 38.2143 104.839 38.2143H103.172C102.815 38.2143 102.485 38.0238 102.306 37.7146L100.013 33.7473C99.6378 33.0977 98.7073 33.0775 98.3041 33.7101L95.6678 37.8462C95.304 38.4171 94.4899 38.469 94.0564 37.949L91.5003 34.8822C91.0823 34.3807 90.3038 34.4077 89.9215 34.9369L88.2143 37.3003C87.8632 37.7864 87.1661 37.8563 86.7255 37.4496Z" fill="url(#paint1_linear_30_1447)"/>
<path d="M85 35.8571L86.7255 37.4496C87.1661 37.8563 87.8632 37.7864 88.2143 37.3003L89.9215 34.9369C90.3038 34.4077 91.0823 34.3807 91.5003 34.8822L94.0564 37.949C94.4899 38.469 95.304 38.4171 95.6678 37.8462L98.3041 33.7101C98.7073 33.0775 99.6378 33.0977 100.013 33.7473L102.306 37.7146C102.485 38.0238 102.815 38.2143 103.172 38.2143H104.839C105.341 38.2143 105.765 37.8422 105.83 37.3445L106.209 34.4589C106.256 34.1081 106.484 33.8078 106.809 33.6691L109.286 32.6142C109.693 32.4406 110.167 32.5559 110.449 32.8976L111.419 34.0734C111.836 34.5783 112.618 34.5531 113.001 34.0223L116.683 28.9249C116.75 28.8328 116.8 28.73 116.832 28.6209L120.262 16.9327C120.387 16.5068 120.778 16.2143 121.222 16.2143H121.699C122.149 16.2143 122.543 15.9148 122.663 15.482L124.421 9.15492C124.685 8.20401 126.021 8.17006 126.333 9.10633L127.867 13.7077C128.158 14.5814 129.376 14.6301 129.736 13.7825L130.835 11.1955C131.105 10.5617 131.999 10.5518 132.283 11.1794C132.555 11.7834 133.406 11.8036 133.707 11.2132L135.465 7.76414C135.838 7.03329 136.884 7.03738 137.251 7.77112L138.567 10.403C138.773 10.8161 139.236 11.034 139.686 10.9302L141.842 10.4328C142.146 10.3626 142.465 10.4385 142.705 10.6379L144.91 12.4691C145.074 12.6052 145.19 12.79 145.241 12.9967L147.248 21.0541C147.483 21.9971 148.789 22.0848 149.148 21.1816L150.505 17.7674C150.784 17.0648 151.711 16.9141 152.199 17.4922L152.808 18.2159C152.998 18.4413 153.278 18.5714 153.573 18.5714H157.131C157.452 18.5714 157.75 18.4031 157.916 18.128C158.338 17.4263 159.399 17.5896 159.59 18.3859L160.302 21.3412C160.41 21.7905 160.812 22.1071 161.274 22.1071H161.986C162.44 22.1071 162.837 22.4136 162.953 22.8531L164.644 29.293C164.826 29.9848 165.654 30.2677 166.221 29.8316L167.28 29.0171C167.474 28.868 167.607 28.6531 167.653 28.413L168.5 24" stroke="#40BF6A" stroke-linecap="round"/>
<path d="M171.842 34.8846H169V39.5C169 40.0523 169.448 40.5 170 40.5H252C252.552 40.5 253 40.0523 253 39.5V4.99451L250.5 3.5L248.439 1.85087C248.166 1.63297 247.8 1.57274 247.472 1.69195L242.711 3.42329C242.572 3.4738 242.446 3.55448 242.342 3.65951L239.662 6.36695C239.367 6.66476 238.917 6.74713 238.536 6.57327L236.112 5.46808C235.562 5.21728 234.917 5.50822 234.74 6.08656L232.553 13.2677C232.318 14.0372 231.318 14.2291 230.815 13.6009L229.012 11.3459C228.731 10.9951 228.183 11.0501 227.977 11.4495C227.803 11.7878 227.369 11.8909 227.061 11.6667L226.501 11.2577C226.019 10.9063 225.339 11.0519 225.043 11.5696L223.41 14.4289C223.189 14.8159 222.738 15.0099 222.305 14.9046L220.89 14.5605C220.371 14.4344 219.845 14.7381 219.695 15.2504L217.026 24.3332C216.94 24.626 216.725 24.8635 216.443 24.9781L213.1 26.3329C212.632 26.5225 212.096 26.3336 211.85 25.8926L209.86 22.3189C209.472 21.6212 208.462 21.638 208.097 22.3482L207.594 23.3277C207.479 23.5515 207.283 23.7237 207.047 23.81L204.79 24.6331C204.506 24.7366 204.285 24.9627 204.187 25.2484L202.72 29.5268C202.613 29.84 202.358 30.0798 202.038 30.1671L198.78 31.0583C198.567 31.1167 198.379 31.2442 198.246 31.4208L196.372 33.9057C195.991 34.4112 195.242 34.4398 194.824 33.9648L193.905 32.9222C193.575 32.5478 193.019 32.474 192.603 32.7491L187.495 36.1248C187.152 36.3512 186.706 36.3451 186.369 36.1094L185.208 35.295C184.857 35.0496 184.39 35.054 184.044 35.306L182.837 36.187C182.665 36.3119 182.459 36.3791 182.247 36.3791H178.891C178.625 36.3791 178.37 36.2734 178.183 36.0852L175.176 33.0698C174.752 32.6444 174.051 32.6863 173.681 33.1592L172.63 34.5013C172.44 34.7433 172.15 34.8846 171.842 34.8846Z" fill="url(#paint2_linear_30_1447)"/>
<path d="M168.5 24L171.396 28.826C171.464 28.9408 171.51 29.0683 171.528 29.2009L172.016 32.6633C172.134 33.4966 173.194 33.7811 173.713 33.1187C174.066 32.6673 174.735 32.6273 175.14 33.0334L178.183 36.0852C178.37 36.2734 178.625 36.3791 178.891 36.3791H182.247C182.459 36.3791 182.665 36.3119 182.837 36.187L183.885 35.422C184.303 35.1175 184.883 35.1811 185.225 35.5687L186.29 36.7773C186.645 37.1807 187.256 37.2307 187.673 36.8905L192.583 32.8787C193 32.5385 193.611 32.5885 193.966 32.992L194.824 33.9648C195.242 34.4398 195.991 34.4112 196.372 33.9057L198.246 31.4208C198.379 31.2442 198.567 31.1167 198.78 31.0583L202.038 30.1671C202.358 30.0798 202.613 29.84 202.72 29.5268L204.187 25.2484C204.285 24.9627 204.506 24.7366 204.79 24.6331L207.047 23.81C207.283 23.7237 207.479 23.5515 207.594 23.3277L208.097 22.3482C208.462 21.638 209.472 21.6212 209.86 22.3189L211.85 25.8926C212.096 26.3336 212.632 26.5225 213.1 26.3329L216.443 24.9781C216.725 24.8635 216.94 24.626 217.026 24.3332L219.695 15.2504C219.845 14.7381 220.371 14.4344 220.89 14.5605L222.305 14.9046C222.738 15.0099 223.189 14.8159 223.41 14.4289L225.043 11.5696C225.339 11.0519 226.019 10.9063 226.501 11.2577L227.061 11.6667C227.369 11.8909 227.803 11.7878 227.977 11.4495C228.183 11.0501 228.732 10.9951 229.012 11.3459L230.815 13.6009C231.318 14.2291 232.318 14.0372 232.553 13.2677L234.741 6.08657C234.917 5.50822 235.562 5.21728 236.112 5.46808L238.536 6.57327C238.917 6.74713 239.367 6.66476 239.662 6.36695L242.371 3.63069C242.456 3.54429 242.557 3.47421 242.667 3.4239L247.408 1.26893C247.768 1.10539 248.19 1.16908 248.486 1.43143L252.5 4.99451" stroke="#DF2040" stroke-linecap="round"/>
</g>
<defs>
<linearGradient id="paint0_linear_30_1447" x1="43" y1="6" x2="43" y2="41" gradientUnits="userSpaceOnUse">
<stop stop-color="#DF2040" stop-opacity="0.2"/>
<stop offset="1" stop-color="#DF2040" stop-opacity="0"/>
</linearGradient>
<linearGradient id="paint1_linear_30_1447" x1="127" y1="6" x2="127" y2="41" gradientUnits="userSpaceOnUse">
<stop stop-color="#40BF6A" stop-opacity="0.2"/>
<stop offset="1" stop-color="#40BF6A" stop-opacity="0"/>
</linearGradient>
<linearGradient id="paint2_linear_30_1447" x1="211" y1="3.5" x2="211" y2="40.5" gradientUnits="userSpaceOnUse">
<stop stop-color="#DF2040" stop-opacity="0.2"/>
<stop offset="1" stop-color="#DF2040" stop-opacity="0"/>
</linearGradient>
</defs>
</svg>
