<svg width="346" height="289" viewBox="0 0 346 289" fill="none" xmlns="http://www.w3.org/2000/svg">
<g opacity="0.6">
<path d="M4.34033 55.1494C5.62793 55.1494 6.54639 54.2573 6.54639 52.9785V52.9697C6.54639 51.7437 5.68945 50.8516 4.49854 50.8516C3.92285 50.8516 3.42627 51.0845 3.14502 51.5107H3.07471L3.29004 49.3662H6.19482V48.6587H2.66602L2.33203 52.3018H3.01758C3.09668 52.1523 3.19775 52.0293 3.30762 51.9238C3.58008 51.6646 3.94043 51.5371 4.3623 51.5371C5.18408 51.5371 5.77295 52.1392 5.77295 52.9829V52.9917C5.77295 53.8486 5.19287 54.4507 4.34912 54.4507C3.60645 54.4507 3.05713 53.9673 2.98242 53.3608L2.97803 53.3257H2.21777L2.22217 53.374C2.31445 54.3892 3.1582 55.1494 4.34033 55.1494ZM7.86914 55H8.63379V53.2026L9.07764 52.772L10.853 55H11.8154L9.61377 52.2534L11.6792 50.2627H10.752L8.7041 52.3325H8.63379V48.3818H7.86914V55Z" fill="#B9C1D9"/>
<path d="M4.9248 92H5.69824V90.686H6.59912V89.9785H5.69824V85.6587H4.55127C3.66357 86.9814 2.69238 88.5283 1.83545 89.9653V90.686H4.9248V92ZM2.64404 89.9829V89.9302C3.33398 88.7656 4.16455 87.4561 4.87646 86.3926H4.9292V89.9829H2.64404ZM7.86914 92H8.63379V90.2026L9.07764 89.772L10.853 92H11.8154L9.61377 89.2534L11.6792 87.2627H10.752L8.7041 89.3325H8.63379V85.3818H7.86914V92Z" fill="#B9C1D9"/>
<path d="M4.33594 129.105C5.60596 129.105 6.5376 128.323 6.5376 127.264V127.255C6.5376 126.354 5.90918 125.779 4.98633 125.7V125.682C5.77734 125.515 6.33105 124.979 6.33105 124.197V124.188C6.33105 123.226 5.53564 122.553 4.32715 122.553C3.14062 122.553 2.32324 123.243 2.22217 124.276L2.21777 124.32H2.97803L2.98242 124.276C3.04834 123.634 3.58008 123.239 4.32715 123.239C5.10059 123.239 5.53564 123.621 5.53564 124.285V124.293C5.53564 124.926 5.0083 125.392 4.25244 125.392H3.49219V126.06H4.2876C5.17529 126.06 5.7334 126.495 5.7334 127.273V127.282C5.7334 127.954 5.1665 128.42 4.33594 128.42C3.49219 128.42 2.9165 127.989 2.85498 127.365L2.85059 127.321H2.09033L2.09473 127.374C2.17822 128.376 3.02637 129.105 4.33594 129.105ZM7.86914 129H8.63379V127.203L9.07764 126.772L10.853 129H11.8154L9.61377 126.253L11.6792 124.263H10.752L8.7041 126.333H8.63379V122.382H7.86914V129Z" fill="#B9C1D9"/>
<path d="M2.38916 166H6.49365V165.288H3.48779V165.218L4.9292 163.728C6.07617 162.546 6.38818 162.019 6.38818 161.293V161.285C6.38818 160.261 5.54004 159.509 4.43262 159.509C3.21973 159.509 2.34961 160.318 2.34521 161.443L2.354 161.447L3.10986 161.452L3.11426 161.443C3.11426 160.696 3.61963 160.199 4.37988 160.199C5.12695 160.199 5.57959 160.7 5.57959 161.368V161.377C5.57959 161.931 5.34229 162.26 4.53369 163.135L2.38916 165.455V166ZM7.86914 166H8.63379V164.203L9.07764 163.772L10.853 166H11.8154L9.61377 163.253L11.6792 161.263H10.752L8.7041 163.333H8.63379V159.382H7.86914V166Z" fill="#B9C1D9"/>
<path d="M5.19727 203H5.98828V196.659H5.20166L3.51416 197.872V198.707L5.12695 197.538H5.19727V203ZM7.86914 203H8.63379V201.203L9.07764 200.772L10.853 203H11.8154L9.61377 200.253L11.6792 198.263H10.752L8.7041 200.333H8.63379V196.382H7.86914V203Z" fill="#B9C1D9"/>
<path d="M3.2832 240.149C4.70703 240.149 5.52441 238.945 5.52441 236.84C5.52441 234.74 4.69385 233.509 3.2832 233.509C1.86377 233.509 1.0332 234.735 1.0332 236.827C1.0332 238.937 1.85498 240.149 3.2832 240.149ZM3.2832 239.459C2.34717 239.459 1.82861 238.523 1.82861 236.827C1.82861 235.153 2.35596 234.204 3.2832 234.204C4.21045 234.204 4.729 235.144 4.729 236.827C4.729 238.528 4.21924 239.459 3.2832 239.459ZM7.69531 237.333H7.625V233.382H6.86914V240H7.625V238.203L8.07764 237.781L9.85303 240H10.8154L8.64014 237.293L10.6792 235.263H9.75195L7.69531 237.333Z" fill="#B9C1D9"/>
<path d="M29.7861 28.8155H34.3467V28.0245H31.0068V27.9464L32.6084 26.2911C33.8828 24.9776 34.2295 24.3917 34.2295 23.586V23.5762C34.2295 22.4385 33.2871 21.6036 32.0566 21.6036C30.709 21.6036 29.7422 22.502 29.7373 23.752L29.7471 23.7569L30.5869 23.7618L30.5918 23.752C30.5918 22.9219 31.1533 22.3702 31.998 22.3702C32.8281 22.3702 33.3311 22.9268 33.3311 23.669V23.6788C33.3311 24.294 33.0674 24.6602 32.1689 25.6319L29.7861 28.21V28.8155ZM38.8926 28.8155H39.752V27.3555H40.7529V26.5694H39.752V21.7696H38.4775C37.4912 23.2393 36.4121 24.9581 35.46 26.5547V27.3555H38.8926V28.8155ZM36.3584 26.5743V26.5157C37.125 25.2217 38.0479 23.7667 38.8389 22.585H38.8975V26.5743H36.3584ZM42.2227 28.8155H43.1016V25.6075H46.9688V28.8155H47.8477V21.7696H46.9688V24.8165H43.1016V21.7696H42.2227V28.8155Z" fill="white"/>
<rect x="90.75" y="12.8155" width="40" height="24" rx="5" fill="#2C2C33"/>
<path d="M106.102 28.8155H106.98V21.7696H106.106L104.231 23.1172V24.045L106.023 22.7462H106.102V28.8155ZM110.589 28.8155H111.419L113.04 23.254H113.099L114.72 28.8155H115.55L117.469 21.7696H116.551L115.149 27.4971H115.091L113.514 21.7696H112.625L111.048 27.4971H110.989L109.588 21.7696H108.67L110.589 28.8155Z" fill="white"/>
<path d="M178.32 28.8155H179.199V21.7696H178.325L176.45 23.1172V24.045L178.242 22.7462H178.32V28.8155ZM181.348 28.8155H182.168V23.4346H182.222L184.448 28.8155H185.19L187.417 23.4346H187.471V28.8155H188.291V21.7696H187.271L184.858 27.6485H184.78L182.368 21.7696H181.348V28.8155Z" fill="white"/>
<path d="M251.164 28.8155H252.043V21.7696H251.169L249.294 23.1172V24.045L251.086 22.7462H251.164V28.8155ZM256.13 28.8155H257.009V25.7833L259.509 21.7696H258.508L256.608 24.8995H256.53L254.631 21.7696H253.63L256.13 25.7833V28.8155Z" fill="white"/>
<path d="M320.438 28.8155H321.361L322.069 26.7989H324.872L325.58 28.8155H326.503L323.905 21.7696H323.036L320.438 28.8155ZM323.432 22.9073H323.51L324.613 26.0518H322.328L323.432 22.9073ZM327.68 28.8155H328.529V21.462H327.68V28.8155ZM330.209 28.8155H331.059V21.462H330.209V28.8155Z" fill="white"/>
<rect x="19" y="48.8155" width="1.10101" height="186" fill="#525766" fill-opacity="0.2"/>
<rect x="59.7373" y="48.8155" width="1.10101" height="186" fill="#525766" fill-opacity="0.2"/>
<rect x="100.475" y="48.8155" width="1.10101" height="186" fill="#525766" fill-opacity="0.2"/>
<rect x="141.212" y="48.8155" width="1.10101" height="186" fill="#525766" fill-opacity="0.2"/>
<rect x="181.949" y="48.8155" width="1.10102" height="186" fill="#525766" fill-opacity="0.2"/>
<rect x="222.687" y="48.8155" width="1.10102" height="186" fill="#525766" fill-opacity="0.2"/>
<rect x="263.424" y="48.8155" width="1.10102" height="186" fill="#525766" fill-opacity="0.2"/>
<rect x="304.162" y="48.8155" width="1.10105" height="186" fill="#525766" fill-opacity="0.2"/>
<rect x="345" y="233.815" width="1.00002" height="325" transform="rotate(90 345 233.815)" fill="#525766" fill-opacity="0.2"/>
<rect x="345" y="196.815" width="1.00002" height="325" transform="rotate(90 345 196.815)" fill="#525766" fill-opacity="0.2"/>
<rect x="345" y="159.815" width="1.00002" height="325" transform="rotate(90 345 159.815)" fill="#525766" fill-opacity="0.2"/>
<rect x="345" y="122.815" width="1.00002" height="325" transform="rotate(90 345 122.815)" fill="#525766" fill-opacity="0.2"/>
<rect x="345" y="85.8155" width="1.00001" height="325" transform="rotate(90 345 85.8155)" fill="#525766" fill-opacity="0.2"/>
<rect x="345" y="48.8155" width="1.00001" height="325" transform="rotate(90 345 48.8155)" fill="#525766" fill-opacity="0.2"/>
<rect x="344.899" y="48.8155" width="1.10102" height="186" fill="#525766" fill-opacity="0.2"/>
<path d="M32.4009 212.568H20V232.815C20 233.368 20.4477 233.815 21 233.815H344C344.552 233.815 345 233.368 345 232.815V89.8154L331.245 110.163C330.783 110.845 329.742 110.709 329.472 109.931L323.751 93.4868C323.611 93.0848 323.232 92.8154 322.806 92.8154H303.036C302.749 92.8154 302.476 92.9388 302.286 93.1542L294.07 102.477C293.88 102.692 293.607 102.815 293.32 102.815H287.452C287.262 102.815 287.076 102.761 286.916 102.659L276.545 96.07C276.291 95.9089 275.979 95.8703 275.694 95.9649L265.319 99.4066C265.192 99.4486 265.075 99.5157 264.975 99.6037L260.32 103.683C260.221 103.771 260.14 103.877 260.081 103.996L258.023 108.199C257.985 108.276 257.937 108.348 257.881 108.414L249.786 117.754C249.731 117.817 249.669 117.873 249.6 117.92L242.542 122.815L237.144 126.246C237.071 126.292 236.992 126.329 236.91 126.355L226.119 129.783C226.051 129.805 225.981 129.819 225.911 129.826L215.823 130.789C215.645 130.806 215.475 130.871 215.33 130.976L210.237 134.674C210.109 134.767 210.005 134.889 209.933 135.029L196.549 161.27C196.379 161.605 196.035 161.815 195.659 161.815H189.827C189.717 161.815 189.608 161.797 189.504 161.762L176.745 157.419C176.547 157.352 176.333 157.348 176.133 157.408L170.081 159.24C169.917 159.289 169.768 159.38 169.649 159.504L155.19 174.573C155.039 174.73 154.944 174.932 154.918 175.149L153.333 188.583C153.314 188.736 153.261 188.883 153.177 189.012L150.011 193.869C149.876 194.075 149.67 194.225 149.432 194.289L134.37 198.318C134.101 198.39 133.874 198.571 133.744 198.817L127.587 210.491C127.476 210.7 127.295 210.864 127.075 210.952L123.699 212.307C123.309 212.464 122.862 212.359 122.581 212.046L114.493 203.005C114.303 202.793 114.032 202.672 113.748 202.672H109.734C109.421 202.672 109.126 202.819 108.937 203.068L94.6645 221.919C94.4755 222.169 94.1804 222.315 93.8672 222.315H89.4468C89.0823 222.315 88.7467 222.117 88.5709 221.798L85.6573 216.509C85.5872 216.381 85.4901 216.271 85.3729 216.185L81.0254 212.996C80.6773 212.741 80.2046 212.737 79.8532 212.988L72.6765 218.108C72.57 218.184 72.4497 218.238 72.3223 218.268L63.7601 220.259C63.6005 220.296 63.4341 220.293 63.2757 220.251L54.5164 217.913C54.2819 217.85 54.0781 217.704 53.9432 217.502L44.9916 204.12C44.8602 203.923 44.6636 203.78 44.4365 203.714L41.4481 202.856C41.0604 202.744 40.6437 202.877 40.3915 203.192L33.1813 212.193C32.9916 212.43 32.7044 212.568 32.4009 212.568Z" fill="url(#paint0_linear_29_1122)"/>
<path d="M21.7559 212.568C21.7559 212.568 28.8001 214.144 32.7086 212.568C37.5214 210.627 35.7373 204.418 40.6398 202.672C49.1293 199.647 47.8699 215.551 56.5022 218.223C62.3651 220.037 66.6831 220.462 72.3646 218.223C75.9778 216.799 76.3616 212.752 80.2958 212.568C85.7921 212.311 84.3277 220.174 89.2185 222.464C100.678 227.828 102.544 197.307 114.003 202.672C118.894 204.961 117.49 211.789 122.926 212.568C130.263 213.619 127.697 202.23 133.832 198.431C139.165 195.128 144.71 197.916 149.694 194.19C156.593 189.031 149.707 179.526 156.634 174.397C160.501 171.534 163.689 159.83 173.041 157.315C181.256 155.106 190.134 164.145 194.536 161.315C203.479 155.566 206.336 129.101 217.133 130.815C224.623 132.005 239.28 125.598 245.242 121.315C259.087 111.367 257.893 96.4529 275.555 96.3153C280.357 96.2779 285.735 104.21 290.436 103.315C298.526 101.776 297.204 91.8804 305.317 93.3155C308.326 93.8478 317.667 92.6431 321.662 92.0825C322.702 91.9366 323.683 92.6023 323.925 93.6244C325.133 98.7314 328.626 112.796 330.119 111.315C336.255 105.226 337.284 97.3153 345 90.3153" stroke="#40BF6A" stroke-width="2" stroke-linecap="round"/>
<path d="M34.3379 255.815V249.474H33.4194L31.2485 254.765H31.1782L29.0073 249.474H28.0889V255.815H28.8271V250.973H28.8799L30.8794 255.815H31.5474L33.5469 250.973H33.5996V255.815H34.3379ZM37.8052 255.899C39.1543 255.899 39.9893 254.967 39.9893 253.447C39.9893 251.922 39.1543 250.995 37.8052 250.995C36.4561 250.995 35.6211 251.922 35.6211 253.447C35.6211 254.967 36.4561 255.899 37.8052 255.899ZM37.8052 255.218C36.9087 255.218 36.4033 254.567 36.4033 253.447C36.4033 252.322 36.9087 251.676 37.8052 251.676C38.7017 251.676 39.207 252.322 39.207 253.447C39.207 254.567 38.7017 255.218 37.8052 255.218ZM41.1758 255.815H41.9316V253.012C41.9316 252.181 42.4194 251.676 43.1753 251.676C43.9312 251.676 44.2915 252.08 44.2915 252.933V255.815H45.0474V252.748C45.0474 251.623 44.4541 250.995 43.3906 250.995C42.6655 250.995 42.2041 251.302 41.9668 251.825H41.8965V251.078H41.1758V255.815Z" fill="#B9C1D9"/>
<path d="M33.0195 273.815H34.0742V265.36H33.0254L30.7754 266.978V268.091L32.9258 266.532H33.0195V273.815ZM39.2949 274.015C41.0117 274.015 42.2363 272.825 42.2363 271.12V271.108C42.2363 269.474 41.0937 268.284 39.5059 268.284C38.7383 268.284 38.0762 268.595 37.7012 269.163H37.6074L37.8945 266.304H41.7676V265.36H37.0625L36.6172 270.218H37.5312C37.6367 270.019 37.7715 269.855 37.918 269.714C38.2812 269.368 38.7617 269.198 39.3242 269.198C40.4199 269.198 41.2051 270.001 41.2051 271.126V271.138C41.2051 272.28 40.4316 273.083 39.3066 273.083C38.3164 273.083 37.584 272.439 37.4844 271.63L37.4785 271.583H36.4648L36.4707 271.648C36.5937 273.001 37.7187 274.015 39.2949 274.015Z" fill="#575B66"/>
<path d="M75.2407 255.815V250.186H77.2842V249.474H72.4062V250.186H74.4497V255.815H75.2407ZM81.582 251.078H80.8262V253.882C80.8262 254.712 80.3691 255.209 79.5342 255.209C78.7783 255.209 78.4619 254.814 78.4619 253.961V251.078H77.7061V254.146C77.7061 255.266 78.2598 255.899 79.3232 255.899C80.0483 255.899 80.5537 255.6 80.791 255.073H80.8613V255.815H81.582V251.078ZM84.8955 251.663C85.647 251.663 86.1479 252.216 86.1655 253.056H83.5552C83.6123 252.216 84.1396 251.663 84.8955 251.663ZM86.1436 254.589C85.9458 255.007 85.5327 255.231 84.9219 255.231C84.1177 255.231 83.5947 254.638 83.5552 253.702V253.667H86.9609V253.377C86.9609 251.904 86.1831 250.995 84.9043 250.995C83.6035 250.995 82.7686 251.961 82.7686 253.451C82.7686 254.95 83.5903 255.899 84.9043 255.899C85.9414 255.899 86.6797 255.398 86.8994 254.589H86.1436Z" fill="#B9C1D9"/>
<path d="M76.1226 273.815H77.1772V265.36H76.1284L73.8784 266.978V268.091L76.0288 266.532H76.1226V273.815ZM82.6089 274.015C84.314 274.015 85.5679 272.79 85.5679 271.103V271.091C85.5679 269.468 84.3843 268.261 82.7964 268.261C81.6538 268.261 80.8569 268.876 80.5464 269.567H80.4351C80.4351 269.503 80.4351 269.433 80.4409 269.368C80.5054 267.605 81.1323 266.105 82.6675 266.105C83.5229 266.105 84.1147 266.544 84.3726 267.253L84.396 267.317H85.4565L85.439 267.241C85.1519 265.993 84.0972 265.161 82.6792 265.161C80.6284 265.161 79.4272 266.849 79.4272 269.732V269.743C79.4272 272.925 81.062 274.015 82.6089 274.015ZM80.687 271.091V271.085C80.687 269.983 81.519 269.181 82.6147 269.181C83.7104 269.181 84.5073 269.989 84.5073 271.114V271.126C84.5073 272.222 83.6577 273.083 82.5972 273.083C81.5249 273.083 80.687 272.204 80.687 271.091Z" fill="#575B66"/>
<path d="M118.287 250.81H118.34L119.799 255.815H120.546L122.273 249.474H121.447L120.185 254.629H120.133L118.713 249.474H117.913L116.494 254.629H116.441L115.18 249.474H114.354L116.081 255.815H116.828L118.287 250.81ZM124.83 251.663C125.582 251.663 126.083 252.216 126.1 253.056H123.49C123.547 252.216 124.074 251.663 124.83 251.663ZM126.078 254.589C125.881 255.007 125.468 255.231 124.857 255.231C124.052 255.231 123.53 254.638 123.49 253.702V253.667H126.896V253.377C126.896 251.904 126.118 250.995 124.839 250.995C123.538 250.995 122.703 251.961 122.703 253.451C122.703 254.95 123.525 255.899 124.839 255.899C125.876 255.899 126.615 255.398 126.834 254.589H126.078ZM129.836 255.899C130.49 255.899 131.053 255.587 131.352 255.06H131.422V255.815H132.143V249.197H131.387V251.825H131.321C131.053 251.307 130.495 250.995 129.836 250.995C128.632 250.995 127.845 251.961 127.845 253.447C127.845 254.937 128.623 255.899 129.836 255.899ZM130.011 251.676C130.868 251.676 131.405 252.361 131.405 253.447C131.405 254.541 130.873 255.218 130.011 255.218C129.146 255.218 128.627 254.554 128.627 253.447C128.627 252.344 129.15 251.676 130.011 251.676Z" fill="#B9C1D9"/>
<path d="M120.241 273.815H121.296V265.36H120.247L117.997 266.978V268.091L120.147 266.532H120.241V273.815ZM124.091 273.815H125.198L128.96 266.339V265.36H123.364V266.304H127.888V266.386L124.091 273.815Z" fill="#575B66"/>
<path d="M162.739 255.815V250.186H164.782V249.474H159.904V250.186H161.948V255.815H162.739ZM165.951 255.815H166.707V253.012C166.707 252.212 167.173 251.676 168.021 251.676C168.737 251.676 169.115 252.093 169.115 252.933V255.815H169.871V252.748C169.871 251.636 169.238 250.995 168.236 250.995C167.511 250.995 167.014 251.302 166.777 251.825H166.707V249.197H165.951V255.815ZM175.083 251.078H174.327V253.882C174.327 254.712 173.87 255.209 173.035 255.209C172.279 255.209 171.963 254.814 171.963 253.961V251.078H171.207V254.146C171.207 255.266 171.76 255.899 172.824 255.899C173.549 255.899 174.054 255.6 174.292 255.073H174.362V255.815H175.083V251.078Z" fill="#B9C1D9"/>
<path d="M164.039 273.815H165.094V265.36H164.045L161.795 266.978V268.091L163.946 266.532H164.039V273.815ZM170.426 273.956C172.219 273.956 173.496 272.948 173.496 271.53V271.519C173.496 270.476 172.764 269.608 171.68 269.357V269.333C172.606 269.046 173.192 268.343 173.192 267.452V267.44C173.192 266.163 172.026 265.22 170.426 265.22C168.826 265.22 167.66 266.163 167.66 267.44V267.452C167.66 268.343 168.246 269.046 169.172 269.333V269.357C168.088 269.608 167.356 270.476 167.356 271.519V271.53C167.356 272.948 168.633 273.956 170.426 273.956ZM170.426 268.94C169.406 268.94 168.709 268.36 168.709 267.54V267.528C168.709 266.708 169.406 266.128 170.426 266.128C171.446 266.128 172.143 266.708 172.143 267.528V267.54C172.143 268.36 171.446 268.94 170.426 268.94ZM170.426 273.036C169.26 273.036 168.428 272.38 168.428 271.466V271.454C168.428 270.528 169.254 269.866 170.426 269.866C171.598 269.866 172.424 270.528 172.424 271.454V271.466C172.424 272.38 171.592 273.036 170.426 273.036Z" fill="#575B66"/>
<path d="M202.56 255.815V253.069H205.368V252.366H202.56V250.186H205.619V249.474H201.769V255.815H202.56ZM206.823 255.815H207.579V252.88C207.579 252.212 208.102 251.729 208.823 251.729C208.972 251.729 209.244 251.755 209.306 251.773V251.017C209.209 251.003 209.051 250.995 208.928 250.995C208.3 250.995 207.755 251.32 207.614 251.781H207.544V251.078H206.823V255.815ZM210.268 255.815H211.024V251.078H210.268V255.815ZM210.646 250.164C210.936 250.164 211.174 249.927 211.174 249.637C211.174 249.347 210.936 249.109 210.646 249.109C210.356 249.109 210.119 249.347 210.119 249.637C210.119 249.927 210.356 250.164 210.646 250.164Z" fill="#B9C1D9"/>
<path d="M202.765 273.815H203.82V265.36H202.771L200.521 266.978V268.091L202.672 266.532H202.765V273.815ZM209.029 265.161C207.324 265.161 206.07 266.386 206.07 268.073V268.085C206.07 269.708 207.254 270.915 208.842 270.915C209.984 270.915 210.781 270.3 211.092 269.608H211.203C211.203 269.673 211.203 269.743 211.197 269.808C211.133 271.571 210.506 273.071 208.97 273.071C208.115 273.071 207.523 272.632 207.265 271.923L207.242 271.858H206.181L206.199 271.935C206.486 273.183 207.541 274.015 208.959 274.015C211.01 274.015 212.211 272.327 212.211 269.444V269.433C212.211 266.251 210.576 265.161 209.029 265.161ZM209.023 269.995C207.927 269.995 207.131 269.187 207.131 268.062V268.05C207.131 266.954 207.98 266.093 209.041 266.093C210.113 266.093 210.951 266.972 210.951 268.085V268.091C210.951 269.192 210.119 269.995 209.023 269.995Z" fill="#575B66"/>
<path d="M237.09 254.159C237.173 255.253 238.1 255.965 239.445 255.965C240.895 255.965 241.814 255.222 241.814 254.058C241.814 253.126 241.286 252.616 239.972 252.287L239.309 252.111C238.434 251.887 238.087 251.601 238.087 251.105C238.087 250.463 238.645 250.041 239.489 250.041C240.28 250.041 240.816 250.428 240.926 251.078H241.721C241.656 250.054 240.741 249.325 239.515 249.325C238.175 249.325 237.274 250.054 237.274 251.131C237.274 252.032 237.771 252.55 238.918 252.84L239.731 253.051C240.605 253.271 241.001 253.614 241.001 254.154C241.001 254.783 240.372 255.244 239.52 255.244C238.619 255.244 237.986 254.822 237.889 254.159H237.09ZM244.494 255.235C243.945 255.235 243.536 254.954 243.536 254.471C243.536 253.996 243.853 253.746 244.573 253.697L245.848 253.614V254.049C245.848 254.726 245.272 255.235 244.494 255.235ZM244.354 255.899C244.987 255.899 245.505 255.622 245.813 255.117H245.883V255.815H246.604V252.572C246.604 251.588 245.958 250.995 244.802 250.995C243.791 250.995 243.044 251.496 242.943 252.256H243.708C243.813 251.882 244.209 251.667 244.776 251.667C245.483 251.667 245.848 251.988 245.848 252.572V253.003L244.481 253.086C243.378 253.152 242.754 253.64 242.754 254.488C242.754 255.354 243.435 255.899 244.354 255.899ZM248.318 249.852V251.078H247.553V251.711H248.318V254.585C248.318 255.49 248.709 255.851 249.684 255.851C249.834 255.851 249.979 255.833 250.128 255.807V255.169C249.988 255.183 249.913 255.187 249.777 255.187C249.284 255.187 249.073 254.95 249.073 254.392V251.711H250.128V251.078H249.073V249.852H248.318Z" fill="#B9C1D9"/>
<path d="M237.114 273.815H242.587V272.866H238.579V272.773L240.501 270.786C242.03 269.21 242.446 268.507 242.446 267.54V267.528C242.446 266.163 241.316 265.161 239.839 265.161C238.222 265.161 237.062 266.239 237.056 267.739L237.068 267.745L238.075 267.751L238.081 267.739C238.081 266.743 238.755 266.081 239.769 266.081C240.765 266.081 241.368 266.749 241.368 267.64V267.651C241.368 268.39 241.052 268.829 239.974 269.995L237.114 273.089V273.815ZM247.187 274.015C249.056 274.015 250.181 272.31 250.181 269.591V269.579C250.181 266.86 249.056 265.161 247.187 265.161C245.318 265.161 244.204 266.86 244.204 269.579V269.591C244.204 272.31 245.318 274.015 247.187 274.015ZM247.187 273.095C245.974 273.095 245.265 271.747 245.265 269.591V269.579C245.265 267.423 245.974 266.087 247.187 266.087C248.4 266.087 249.12 267.423 249.12 269.579V269.591C249.12 271.747 248.4 273.095 247.187 273.095Z" fill="#575B66"/>
<path d="M277.166 254.159C277.249 255.253 278.176 255.965 279.521 255.965C280.971 255.965 281.89 255.222 281.89 254.058C281.89 253.126 281.362 252.616 280.048 252.287L279.385 252.111C278.51 251.887 278.163 251.601 278.163 251.105C278.163 250.463 278.721 250.041 279.565 250.041C280.356 250.041 280.892 250.428 281.002 251.078H281.797C281.731 250.054 280.817 249.325 279.591 249.325C278.251 249.325 277.35 250.054 277.35 251.131C277.35 252.032 277.847 252.55 278.994 252.84L279.807 253.051C280.681 253.271 281.077 253.614 281.077 254.154C281.077 254.783 280.448 255.244 279.596 255.244C278.695 255.244 278.062 254.822 277.965 254.159H277.166ZM286.943 251.078H286.188V253.882C286.188 254.712 285.73 255.209 284.896 255.209C284.14 255.209 283.823 254.814 283.823 253.961V251.078H283.067V254.146C283.067 255.266 283.621 255.899 284.685 255.899C285.41 255.899 285.915 255.6 286.152 255.073H286.223V255.815H286.943V251.078ZM288.367 255.815H289.123V253.012C289.123 252.181 289.611 251.676 290.367 251.676C291.123 251.676 291.483 252.08 291.483 252.933V255.815H292.239V252.748C292.239 251.623 291.646 250.995 290.582 250.995C289.857 250.995 289.396 251.302 289.158 251.825H289.088V251.078H288.367V255.815Z" fill="#B9C1D9"/>
<path d="M279.325 273.815H284.797V272.866H280.79V272.773L282.712 270.786C284.241 269.21 284.657 268.507 284.657 267.54V267.528C284.657 266.163 283.526 265.161 282.049 265.161C280.432 265.161 279.272 266.239 279.266 267.739L279.278 267.745L280.286 267.751L280.292 267.739C280.292 266.743 280.965 266.081 281.979 266.081C282.975 266.081 283.579 266.749 283.579 267.64V267.651C283.579 268.39 283.262 268.829 282.184 269.995L279.325 273.089V273.815ZM288.635 273.815H289.69V265.36H288.641L286.391 266.978V268.091L288.542 266.532H288.635V273.815Z" fill="#575B66"/>
<path d="M326.338 255.815V249.474H325.419L323.249 254.765H323.178L321.007 249.474H320.089V255.815H320.827V250.973H320.88L322.879 255.815H323.547L325.547 250.973H325.6V255.815H326.338ZM329.805 255.899C331.154 255.899 331.989 254.967 331.989 253.447C331.989 251.922 331.154 250.995 329.805 250.995C328.456 250.995 327.621 251.922 327.621 253.447C327.621 254.967 328.456 255.899 329.805 255.899ZM329.805 255.218C328.909 255.218 328.403 254.567 328.403 253.447C328.403 252.322 328.909 251.676 329.805 251.676C330.702 251.676 331.207 252.322 331.207 253.447C331.207 254.567 330.702 255.218 329.805 255.218ZM333.176 255.815H333.932V253.012C333.932 252.181 334.419 251.676 335.175 251.676C335.931 251.676 336.292 252.08 336.292 252.933V255.815H337.047V252.748C337.047 251.623 336.454 250.995 335.391 250.995C334.666 250.995 334.204 251.302 333.967 251.825H333.896V251.078H333.176V255.815Z" fill="#B9C1D9"/>
<path d="M322.201 273.815H327.674V272.866H323.666V272.773L325.588 270.786C327.117 269.21 327.533 268.507 327.533 267.54V267.528C327.533 266.163 326.402 265.161 324.926 265.161C323.308 265.161 322.148 266.239 322.142 267.739L322.154 267.745L323.162 267.751L323.168 267.739C323.168 266.743 323.842 266.081 324.855 266.081C325.851 266.081 326.455 266.749 326.455 267.64V267.651C326.455 268.39 326.139 268.829 325.06 269.995L322.201 273.089V273.815ZM329.443 273.815H334.916V272.866H330.908V272.773L332.83 270.786C334.359 269.21 334.775 268.507 334.775 267.54V267.528C334.775 266.163 333.644 265.161 332.168 265.161C330.551 265.161 329.391 266.239 329.385 267.739L329.396 267.745L330.404 267.751L330.41 267.739C330.41 266.743 331.084 266.081 332.098 266.081C333.094 266.081 333.697 266.749 333.697 267.64V267.651C333.697 268.39 333.381 268.829 332.303 269.995L329.443 273.089V273.815Z" fill="#575B66"/>
</g>
<defs>
<linearGradient id="paint0_linear_29_1122" x1="182.5" y1="93.8154" x2="182.5" y2="233.815" gradientUnits="userSpaceOnUse">
<stop stop-color="#40BF6A" stop-opacity="0.3"/>
<stop offset="1" stop-color="#40BF6A" stop-opacity="0"/>
</linearGradient>
</defs>
</svg>
